<svg version="1.1" xmlns="http://www.w3.org/2000/svg" xmlns:xlink="http://www.w3.org/1999/xlink" width="41.85469" height="41.8547"><g transform="translate(-219.07267,-159.07265)"><g data-paper-data="{&quot;isPaintingLayer&quot;:true}" fill="none" fill-rule="nonzero" stroke="none" stroke-width="none" stroke-linecap="none" stroke-linejoin="miter" stroke-miterlimit="10" stroke-dasharray="" stroke-dashoffset="0" font-family="none" font-weight="none" font-size="none" text-anchor="none" style="mix-blend-mode: normal"><path d="M219.07267,195.34672c0,-12.3188 0,-26.05259 0,-31.56542c0,-1.8376 3.29637,-4.70865 5.40624,-4.70865c12.25074,0 25.46984,0 31.39102,0c1.97374,0 5.05743,2.97739 5.05743,4.88306c0,5.71701 0,19.03395 0,31.21662c0,2.24598 -3.19003,5.75502 -5.23184,5.75502c0,0 -25.64421,0 -31.56542,0c-1.97374,0 -5.05743,-3.40271 -5.05743,-5.58062z" data-paper-data="{&quot;origPos&quot;:null}" fill="#70b9ff" stroke="none" stroke-width="0" stroke-linecap="butt"/><path d="M227.0948,178.60484c0,-7.89787 6.40249,-14.30036 14.30036,-14.30036c7.89787,0 14.30036,6.40249 14.30036,14.30036c0,7.89787 -6.40249,14.30036 -14.30036,14.30036c-7.89787,0 -14.30036,-6.40249 -14.30036,-14.30036z" data-paper-data="{&quot;origPos&quot;:null}" fill="none" stroke="#ffffff" stroke-width="5" stroke-linecap="butt"/><path d="M245.75504,186.80139c0,0 -5.09669,2.5593 -3.4279,6.54126c2.41196,5.75526 8.13655,2.35286 8.13655,2.35286" data-paper-data="{&quot;origPos&quot;:null}" fill="none" stroke="#70b9ff" stroke-width="5" stroke-linecap="round"/><path d="M233.54742,198.31143v-13.77717h8.54533v13.77717z" fill="#70b9ff" stroke="none" stroke-width="0" stroke-linecap="butt"/><path d="M235.11697,180v11.51004l-7.84776,2.26713" data-paper-data="{&quot;origPos&quot;:null}" fill="none" stroke="#ffffff" stroke-width="5" stroke-linecap="round"/></g></g></svg>