<svg height="374" width="492" xmlns:xlink="http://www.w3.org/1999/xlink" xmlns="http://www.w3.org/2000/svg" version="1.1"><g transform="translate(3,1)"><g style="mix-blend-mode: normal" text-anchor="none" font-size="none" font-weight="none" font-family="none" stroke-dashoffset="0" stroke-dasharray="" stroke-miterlimit="10" stroke-linejoin="miter" stroke-linecap="butt" stroke-width="none" stroke="none" fill-rule="nonzero" fill="none" data-paper-data="{&quot;isPaintingLayer&quot;:true}"><path stroke-width="0" stroke="none" fill="#e5e5e5" data-paper-data="{&quot;origPos&quot;:null}" d="M-3,373v-374h492v374z"></path><g stroke-width="0" stroke="none" fill="#5928bb" data-paper-data="{&quot;origPos&quot;:null}"><path data-paper-data="{&quot;origPos&quot;:null}" d="M221.33985,27.74696l-0.26365,-25.17868l3.68291,-1.00157l0.53551,9.96571c0,0 2.75099,-0.96518 3.99224,-0.7839c1.20427,0.17588 1.50659,1.02427 2.06836,2.10392c1.84813,3.55187 2.90353,14.76271 2.90353,14.76271l-4.21948,0.29191c0,0 -0.32702,-8.99409 -1.38008,-12.13513c-0.6423,-1.91583 -2.96406,-0.82247 -2.96406,-0.82247l0.12284,12.87993z"></path><path data-paper-data="{&quot;origPos&quot;:null}" d="M213.69397,28.93339c0,0 -1.86066,-0.74548 -2.54192,-1.40808c-1.21643,-1.18312 -1.2755,-3.2316 -1.22693,-4.9278c0.14632,-5.10995 6.34917,-5.91392 6.34917,-5.91392l0.01154,-2.21457c0,0 -0.83403,-0.72617 -1.5366,-0.68471c-0.93042,0.0549 -2.64773,0.93164 -2.64773,0.93164l-1.04403,-3.05171c0,0 4.47308,-1.29233 6.74546,-0.60074c1.27745,0.38879 2.35051,3.36907 2.35051,3.36907l-0.13182,14.76447zM213.30159,22.83787c0.02046,3.53575 2.18716,3.23929 3.07283,3.23929l-0.16126,-6.24836c0,0 -2.92469,0.74371 -2.91157,3.00907z"></path><path data-paper-data="{&quot;origPos&quot;:null}" d="M194.62383,29.41949l0.20918,-22.59145l4.69812,-1.00352c0,0 0.03767,1.84075 0.06178,3.01891c0.0516,2.52165 0.13223,6.46142 0.13223,6.46142l7.86784,-7.74468l4.07901,1.77804l-5.33409,6.2754l3.54176,13.98709l-4.16962,-0.04952c0,0 -0.84631,-2.20638 -1.25411,-3.55164c-0.83747,-2.76268 -1.93675,-6.97446 -1.93675,-6.97446l-2.86992,2.78309l-0.10917,7.87891z"></path><path data-paper-data="{&quot;origPos&quot;:null}" d="M241.81676,27.65907c-3.98002,0 -7.558,-3.60024 -7.558,-8.04136c0,-4.44112 3.75374,-7.25041 7.73377,-7.25041c3.98002,0 6.5034,3.16082 6.5034,7.60194c0,4.44112 -2.69914,7.68982 -6.67917,7.68982zM238.49915,20.71626c0.24698,1.58539 2.1686,3.89212 3.9328,3.01002c3.64752,-1.82376 1.76126,-10.31163 -2.60496,-7.40082c0,0 -1.72963,1.81162 -1.32783,4.3908z"></path><path data-paper-data="{&quot;origPos&quot;:null}" d="M256.77327,27.92273c-4.12743,0 -7.83793,-3.60024 -7.83793,-8.04136c0,-4.44112 3.89277,-7.25041 8.0202,-7.25041c4.12743,0 6.74426,3.16082 6.74426,7.60194c0,4.44112 -2.79911,7.68982 -6.92654,7.68982zM253.33278,20.97991c0.25612,1.58539 2.24892,3.89212 4.07845,3.01002c3.78261,-1.82376 1.82649,-10.31163 -2.70144,-7.40082c0,0 -1.79368,1.81162 -1.37701,4.3908z"></path><path data-paper-data="{&quot;origPos&quot;:null}" d="M262.73308,10.52175l3.60877,0.36743l-0.09342,-6.69506l3.42747,1.31826l0.0065,5.97481l4.38633,0.46418l0.17712,2.78881l-4.46514,0.28715l0.2356,8.79343c0,0 1.01292,0.51521 1.9425,0.39497c0.69436,-0.08981 2.21863,-0.93322 2.21863,-0.93322l-0.04153,5.2915c0,0 -1.44035,2.29452 -6.33116,0.82064c-0.92949,-0.28011 -1.22336,-2.07827 -1.22336,-2.07827l-0.42099,-11.61074l-2.57508,-0.00921z"></path><path d="M282.08053,26.10566l-5.40485,-22.1467l8.70049,1.71373z"></path><path d="M280.10315,27.81939l3.03199,0.26365l0.92278,3.03199l-2.63651,1.31826l-2.66021,-1.83551z"></path></g><text style="mix-blend-mode: normal" text-anchor="start" font-weight="normal" font-family="Sans Serif" stroke-dashoffset="0" stroke-dasharray="" stroke-miterlimit="10" stroke-linejoin="miter" stroke-linecap="butt" stroke-width="2" stroke="#5a29bb" fill-rule="nonzero" fill="#5a29bb" data-paper-data="{&quot;origPos&quot;:null}" xml:space="preserve" font-size="40" transform="translate(11.59358,53.28042) scale(0.34679,0.34679)"><tspan dy="0" x="0">Featured Quizzes</tspan></text></g></g></svg>