<svg version="1.1" xmlns="http://www.w3.org/2000/svg" xmlns:xlink="http://www.w3.org/1999/xlink" width="41.85469" height="41.8547"><g transform="translate(-219.07267,-159.07265)"><g data-paper-data="{&quot;isPaintingLayer&quot;:true}" fill="none" fill-rule="nonzero" stroke="none" stroke-width="0" stroke-linecap="butt" stroke-linejoin="miter" stroke-miterlimit="10" stroke-dasharray="" stroke-dashoffset="0" font-family="none" font-weight="none" font-size="none" text-anchor="none" style="mix-blend-mode: normal"><path d="M219.07268,195.34672c0,-12.3188 0,-26.05259 0,-31.56542c0,-1.8376 3.29637,-4.70865 5.40624,-4.70865c12.25074,0 25.46984,0 31.39102,0c1.97374,0 5.05743,2.97739 5.05743,4.88306c0,5.71701 0,19.03395 0,31.21662c0,2.24598 -3.19003,5.75502 -5.23184,5.75502c0,0 -25.64421,0 -31.56542,0c-1.97374,0 -5.05743,-3.40271 -5.05743,-5.58062z" data-paper-data="{&quot;origPos&quot;:null}" fill="#70b9ff"/><path d="M240.38687,168.26868c1.35709,-0.00138 10.51502,14.82426 9.63305,16.22409c-0.06282,0.27407 -19.62473,0.19872 -20.02661,0c-1.02232,-1.46142 9.01683,-16.22268 10.39356,-16.22409z" data-paper-data="{&quot;origPos&quot;:null,&quot;origRot&quot;:0}" fill="#ffffff"/><path d="M229.32876,187.9643c0.0725,-1.11343 0,0.32838 0,-1.14321c0,-0.49053 0.87993,-1.25693 1.44314,-1.25693c3.27022,0 16.51356,0 18.09416,0c0.52687,0 1.35003,0.79479 1.35003,1.30349c0,1.5261 0.14499,0.04551 0,1.05011c-0.08565,0.59339 -0.85155,1.53625 -1.39659,1.53625c0,0 -16.5601,0 -18.14071,0c-0.52687,0 -1.35003,-0.90832 -1.35003,-1.48969z" data-paper-data="{&quot;origPos&quot;:null}" fill="#ffffff"/></g></g></svg>