<svg version="1.1" xmlns="http://www.w3.org/2000/svg" xmlns:xlink="http://www.w3.org/1999/xlink" width="131.2549" height="33.63819"><g transform="translate(-174.37255,-163.1809)"><g data-paper-data="{&quot;isPaintingLayer&quot;:true}" fill="none" fill-rule="nonzero" stroke="none" stroke-width="none" stroke-linecap="butt" stroke-linejoin="miter" stroke-miterlimit="10" stroke-dasharray="" stroke-dashoffset="0" font-family="none" font-weight="none" font-size="none" text-anchor="none" style="mix-blend-mode: normal"><path d="M174.37255,192.58683c0,-8.65282 0,-17.84898 0,-21.94769c0,-1.36624 1.76341,-4.16038 4.58073,-4.16038c45.33316,0 112.87644,0 122.09674,0c3.07343,0 4.57743,2.57429 4.57743,3.94052c0,8.88053 0,16.80226 0,21.58408c0,1.59394 -0.72575,4.81573 -4.56754,4.81573c-11.52538,0 -77.87161,0 -122.43642,0c-2.81732,0 -4.25094,-2.41061 -4.25094,-4.23226z" data-paper-data="{&quot;origPos&quot;:null}" fill="#361972" stroke="none" stroke-width="0"/><path d="M174.37255,189.28897c0,-8.65282 0,-17.84898 0,-21.94769c0,-1.36624 1.76341,-4.16038 4.58073,-4.16038c45.33316,0 112.87644,0 122.09674,0c3.07343,0 4.57743,2.57429 4.57743,3.94052c0,8.88053 0,16.80226 0,21.58408c0,1.59394 -0.72575,4.81573 -4.56754,4.81573c-11.52538,0 -77.87161,0 -122.43642,0c-2.81732,0 -4.25094,-2.41061 -4.25094,-4.23226z" data-paper-data="{&quot;origPos&quot;:null}" fill="#5a29bb" stroke="none" stroke-width="0"/><text transform="translate(198.8063,183.01362) scale(0.381,0.381)" font-size="40" xml:space="preserve" data-paper-data="{&quot;origPos&quot;:null}" fill="#ffffff" fill-rule="nonzero" stroke="#ffffff" stroke-width="2" stroke-linecap="butt" stroke-linejoin="miter" stroke-miterlimit="10" stroke-dasharray="" stroke-dashoffset="0" font-family="Sans Serif" font-weight="normal" text-anchor="start" style="mix-blend-mode: normal"><tspan x="0" dy="0">Play Online</tspan></text></g></g></svg>