<svg version="1.1" xmlns="http://www.w3.org/2000/svg" xmlns:xlink="http://www.w3.org/1999/xlink" width="329.8547" height="302.56758"><g transform="translate(-75.07269,-25.8598)"><g data-paper-data="{&quot;isPaintingLayer&quot;:true}" fill="none" fill-rule="nonzero" stroke="none" stroke-width="none" stroke-linecap="none" stroke-linejoin="miter" stroke-miterlimit="10" stroke-dasharray="" stroke-dashoffset="0" font-family="none" font-weight="none" font-size="none" text-anchor="none" style="mix-blend-mode: normal"><path d="M75.07269,288.84672c0,-87.37118 0,-184.77818 0,-223.87797c0,-13.03319 23.37953,-33.39613 38.3438,-33.39613c86.88846,0 213.64502,0 255.64104,0c13.99877,0 35.86986,21.11716 35.86986,34.63314c0,40.54793 0,134.99843 0,221.4041c0,15.92963 -22.62531,40.81752 -37.10686,40.81752c0,0 -214.88174,0 -256.87797,0c-13.99877,0 -35.86986,-24.13375 -35.86986,-39.58059z" data-paper-data="{&quot;origPos&quot;:null}" fill="#70b9ff" stroke="none" stroke-width="0" stroke-linecap="butt"/><text transform="translate(134.71679,65.51875) scale(0.9117,0.9117)" font-size="40" xml:space="preserve" data-paper-data="{&quot;origPos&quot;:null}" fill="#ffffff" fill-rule="nonzero" stroke="none" stroke-width="1" stroke-linecap="butt" stroke-linejoin="miter" stroke-miterlimit="10" stroke-dasharray="" stroke-dashoffset="0" font-family="Sans Serif" font-weight="normal" text-anchor="start" style="mix-blend-mode: normal"><tspan x="0" dy="0">Instructions</tspan></text><text transform="translate(85.00003,92.45982) scale(0.44035,0.44035)" font-size="40" xml:space="preserve" data-paper-data="{&quot;origPos&quot;:null}" fill="#ffffff" fill-rule="nonzero" stroke="none" stroke-width="1" stroke-linecap="butt" stroke-linejoin="miter" stroke-miterlimit="10" stroke-dasharray="" stroke-dashoffset="0" font-family="Sans Serif" font-weight="normal" text-anchor="start" style="mix-blend-mode: normal"><tspan x="0" dy="0">Use arrow keys to make the cubes </tspan><tspan x="0" dy="46.150000000000006px">move and bring them to their </tspan><tspan x="0" dy="46.150000000000006px">goal.</tspan></text><g data-paper-data="{&quot;origPos&quot;:null}" fill="none" stroke="#ffffff" stroke-width="4" stroke-linecap="round"><path d="M242.00001,146l33.33333,0.33334"/><path d="M267.33336,137.66667l7.66667,8.33333" data-paper-data="{&quot;origPos&quot;:null}"/><path d="M266.66668,155l8.66667,-8.66667" data-paper-data="{&quot;origPos&quot;:null}"/></g><g data-paper-data="{&quot;origPos&quot;:null}" stroke="none" stroke-width="0" stroke-linecap="butt"><path d="M211.00003,157.86667c0,-9.12402 0,-19.29605 0,-23.37917c0,-1.36104 2.44148,-3.4875 4.00417,-3.4875c9.0736,0 18.86443,0 23.25,0c1.46186,0 3.74583,2.20522 3.74583,3.61667c0,4.23435 0,14.09764 0,23.12083c0,1.6635 -2.36272,4.2625 -3.875,4.2625c0,0 -18.99358,0 -23.37917,0c-1.46186,0 -3.74583,-2.52024 -3.74583,-4.13333z" data-paper-data="{&quot;origPos&quot;:null}" fill="#ff0000"/><path d="M213.16357,156.28007c0,-7.85046 0,-16.60263 0,-20.11582c0,-1.17106 2.10068,-3.0007 3.44524,-3.0007c7.80708,0 16.23127,0 20.00469,0c1.25781,0 3.22297,1.89741 3.22297,3.11184c0,3.64329 0,12.12985 0,19.89355c0,1.43131 -2.03292,3.66753 -3.33411,3.66753c0,0 -16.34241,0 -20.11582,0c-1.25781,0 -3.22297,-2.16847 -3.22297,-3.5564z" data-paper-data="{&quot;origPos&quot;:null}" fill="#de0000"/></g><path d="M303.00001,157.86667c0,-9.12401 0,-19.29605 0,-23.37917c0,-1.36103 2.44149,-3.4875 4.00417,-3.4875c9.0736,0 18.86443,0 23.25,0c1.46186,0 3.74583,2.20522 3.74583,3.61667c0,4.23435 0,14.09764 0,23.12083c0,1.6635 -2.36273,4.2625 -3.875,4.2625c0,0 -18.99358,0 -23.37917,0c-1.46186,0 -3.74583,-2.52024 -3.74583,-4.13333z" data-paper-data="{&quot;origPos&quot;:null}" fill="#ffc0c0" stroke="none" stroke-width="0" stroke-linecap="butt"/><text transform="translate(86.00003,187.45982) scale(0.44035,0.44035)" font-size="40" xml:space="preserve" data-paper-data="{&quot;origPos&quot;:null}" fill="#ffffff" fill-rule="nonzero" stroke="none" stroke-width="1" stroke-linecap="butt" stroke-linejoin="miter" stroke-miterlimit="10" stroke-dasharray="" stroke-dashoffset="0" font-family="Sans Serif" font-weight="normal" text-anchor="start" style="mix-blend-mode: normal"><tspan x="0" dy="0">Click on the switches to switch </tspan><tspan x="0" dy="46.150000000000006px">them on to off.</tspan></text><g data-paper-data="{&quot;origPos&quot;:null}" stroke="none" stroke-linecap="butt"><path d="M231.00002,223.13334c0,-8.53537 0,-18.05114 0,-21.87084c0,-1.27323 2.28397,-3.2625 3.74584,-3.2625c8.48821,0 17.64737,0 21.75,0c1.36755,0 3.50416,2.06295 3.50416,3.38334c0,3.96116 0,13.18811 0,21.62916c0,1.55618 -2.21029,3.9875 -3.625,3.9875c0,0 -17.76819,0 -21.87084,0c-1.36755,0 -3.50416,-2.35765 -3.50416,-3.86666z" data-paper-data="{&quot;origPos&quot;:null}" fill="#9a9a9a" stroke-width="0"/><path d="M233.02398,221.6491c0,-7.34398 0,-15.53149 0,-18.81803c0,-1.09551 1.96515,-2.80711 3.22297,-2.80711c7.3034,0 15.18409,0 18.71406,0c1.17666,0 3.01504,1.775 3.01504,2.91107c0,3.40824 0,11.34728 0,18.6101c0,1.33897 -1.90177,3.43092 -3.119,3.43092c0,0 -15.28806,0 -18.81803,0c-1.17666,0 -3.01504,-2.02857 -3.01504,-3.32695z" data-paper-data="{&quot;origPos&quot;:null}" fill="#818181" stroke-width="0"/><text transform="translate(235.43907,216.27227) scale(0.32696,0.32696)" font-size="40" xml:space="preserve" data-paper-data="{&quot;origPos&quot;:null}" fill="#ffffff" fill-rule="nonzero" stroke="none" stroke-width="1" stroke-linecap="butt" stroke-linejoin="miter" stroke-miterlimit="10" stroke-dasharray="" stroke-dashoffset="0" font-family="Malgun Gothic" font-weight="normal" text-anchor="start" style="mix-blend-mode: normal"><tspan x="0" dy="0">ON</tspan></text></g><g data-paper-data="{&quot;origPos&quot;:null}" fill="none" stroke="#ffffff" stroke-width="4" stroke-linecap="round"><path d="M229.00001,267l33.33333,0.33334"/><path d="M254.33336,258.66667l7.66667,8.33333" data-paper-data="{&quot;origPos&quot;:null}"/><path d="M253.66668,276l8.66667,-8.66667" data-paper-data="{&quot;origPos&quot;:null}"/></g><g data-paper-data="{&quot;origPos&quot;:null}" stroke="none" stroke-linecap="butt"><path d="M281.00001,222.26667c0,-8.24105 0,-17.42869 0,-21.11667c0,-1.22932 2.20521,-3.15 3.61667,-3.15c8.19551,0 17.03884,0 21,0c1.32039,0 3.38333,1.99181 3.38333,3.26667c0,3.82457 0,12.73335 0,20.88333c0,1.50251 -2.13407,3.85 -3.5,3.85c0,0 -17.15549,0 -21.11667,0c-1.32039,0 -3.38333,-2.27635 -3.38333,-3.73333z" data-paper-data="{&quot;origPos&quot;:null}" fill="#b2b2b2" stroke-width="0"/><path d="M282.95417,220.83361c0,-7.09074 0,-14.99592 0,-18.16913c0,-1.05774 1.89739,-2.71031 3.11183,-2.71031c7.05156,0 14.6605,0 18.06875,0c1.13608,0 2.91107,1.71379 2.91107,2.81069c0,3.29072 0,10.956 0,17.96837c0,1.29279 -1.83619,3.31261 -3.01145,3.31261c0,0 -14.76088,0 -18.16913,0c-1.13608,0 -2.91107,-1.95862 -2.91107,-3.21223z" data-paper-data="{&quot;origPos&quot;:null}" fill="#bbbbbb" stroke-width="0"/><text transform="translate(284.41749,215.58627) scale(0.29887,0.29887)" font-size="40" xml:space="preserve" data-paper-data="{&quot;origPos&quot;:null}" fill="#ffffff" fill-rule="nonzero" stroke="none" stroke-width="1" stroke-linecap="butt" stroke-linejoin="miter" stroke-miterlimit="10" stroke-dasharray="" stroke-dashoffset="0" font-family="Malgun Gothic" font-weight="normal" text-anchor="start" style="mix-blend-mode: normal"><tspan x="0" dy="0">OFF</tspan></text></g><text transform="translate(85.00003,247.45982) scale(0.44035,0.44035)" font-size="40" xml:space="preserve" data-paper-data="{&quot;origPos&quot;:null}" fill="#ffffff" fill-rule="nonzero" stroke="none" stroke-width="1" stroke-linecap="butt" stroke-linejoin="miter" stroke-miterlimit="10" stroke-dasharray="" stroke-dashoffset="0" font-family="Sans Serif" font-weight="normal" text-anchor="start" style="mix-blend-mode: normal"><tspan x="0" dy="0">Drag the slidable boxes to make </tspan><tspan x="0" dy="46.150000000000006px">them move.</tspan></text><g data-paper-data="{&quot;origPos&quot;:null}" stroke="none" stroke-width="0" stroke-linecap="butt"><path d="M202,278.86667c0,-9.12402 0,-19.29605 0,-23.37917c0,-1.36104 2.44148,-3.4875 4.00417,-3.4875c9.0736,0 18.86443,0 23.25,0c1.46186,0 3.74583,2.20522 3.74583,3.61667c0,4.23435 0,14.09764 0,23.12083c0,1.6635 -2.36272,4.2625 -3.875,4.2625c0,0 -18.99358,0 -23.37917,0c-1.46186,0 -3.74583,-2.52024 -3.74583,-4.13333z" data-paper-data="{&quot;origPos&quot;:null}" fill="#d89849"/><path d="M204.16355,277.28007c0,-7.85046 0,-16.60263 0,-20.11582c0,-1.17106 2.10068,-3.0007 3.44524,-3.0007c7.80708,0 16.23127,0 20.00469,0c1.25781,0 3.22297,1.89741 3.22297,3.11184c0,3.64329 0,12.12985 0,19.89355c0,1.43131 -2.03292,3.66753 -3.33411,3.66753c0,0 -16.34241,0 -20.11582,0c-1.25781,0 -3.22297,-2.16847 -3.22297,-3.5564z" data-paper-data="{&quot;origPos&quot;:null}" fill="#c38943"/></g><path d="M217,290.9781c0,0 0.22046,-26.86892 0.24088,-26.9781c0.03212,-0.1718 18.30657,20.71533 18.30657,20.71533h-7.46715l6.0219,9.87591l-4.57664,2.40876l-6.50365,-10.35766z" data-paper-data="{&quot;origPos&quot;:null}" fill="#ffffff" stroke="#000000" stroke-width="1.5" stroke-linecap="round"/><text transform="translate(161.00003,317.45982) scale(0.44035,0.44035)" font-size="40" xml:space="preserve" data-paper-data="{&quot;origPos&quot;:null}" fill="#ffffff" fill-rule="nonzero" stroke="none" stroke-width="1" stroke-linecap="butt" stroke-linejoin="miter" stroke-miterlimit="10" stroke-dasharray="" stroke-dashoffset="0" font-family="Sans Serif" font-weight="normal" text-anchor="start" style="mix-blend-mode: normal"><tspan x="0" dy="0">Click to go back.</tspan></text></g></g></svg>