<svg version="1.1" xmlns="http://www.w3.org/2000/svg" xmlns:xlink="http://www.w3.org/1999/xlink" width="30.84081" height="33.69964"><g transform="translate(-224.57961,-163.15018)"><g data-paper-data="{&quot;isPaintingLayer&quot;:true}" fill="none" fill-rule="nonzero" stroke="none" stroke-width="none" stroke-linecap="none" stroke-linejoin="miter" stroke-miterlimit="10" stroke-dasharray="" stroke-dashoffset="0" font-family="none" font-weight="none" font-size="none" text-anchor="none" style="mix-blend-mode: normal"><path d="M224.65756,192.61756c0,-8.65282 0,-17.84898 0,-21.94769c0,-1.36624 2.46416,-4.16038 3.12447,-4.16038c10.62496,0 21.53336,0 23.69437,0c0.72034,0 3.94403,2.57429 3.94403,3.94052c0,8.88053 0,16.80226 0,21.58408c0,1.59394 -3.45147,4.81573 -4.35189,4.81573c-2.70126,0 -12.50876,0 -22.95363,0c-0.66031,0 -3.45735,-2.41061 -3.45735,-4.23226z" data-paper-data="{&quot;origPos&quot;:null}" fill="#361972" stroke="none" stroke-width="0" stroke-linecap="butt"/><path d="M224.57962,189.25825c0,-8.65282 0,-17.84898 0,-21.94769c0,-1.36624 2.46416,-4.16038 3.12447,-4.16038c10.62496,0 21.53336,0 23.69436,0c0.72034,0 3.94404,2.57429 3.94404,3.94052c0,8.88053 0,16.80226 0,21.58408c0,1.59394 -3.45147,4.81573 -4.35189,4.81573c-2.70126,0 -12.50876,0 -22.95363,0c-0.66031,0 -3.45734,-2.41061 -3.45734,-4.23226z" data-paper-data="{&quot;origPos&quot;:null}" fill="#5a29bb" stroke="none" stroke-width="0" stroke-linecap="butt"/><path d="M235.11343,179.89562l4.88658,5.24676l4.88656,-5.24676" data-paper-data="{&quot;origPos&quot;:null}" fill="none" stroke="#ffffff" stroke-width="3.5" stroke-linecap="round"/><path d="M240,182.30726v-10.37224" data-paper-data="{&quot;origPos&quot;:null}" fill="none" stroke="#ffffff" stroke-width="3.5" stroke-linecap="round"/></g></g></svg>