<svg version="1.1" xmlns="http://www.w3.org/2000/svg" xmlns:xlink="http://www.w3.org/1999/xlink" width="57.15296" height="73.15004" viewBox="0,0,57.15296,73.15004"><g transform="translate(-211.56423,-151.25084)"><g data-paper-data="{&quot;isPaintingLayer&quot;:true}" fill="none" fill-rule="nonzero" stroke="none" stroke-width="none" stroke-linecap="butt" stroke-linejoin="miter" stroke-miterlimit="10" stroke-dasharray="" stroke-dashoffset="0" font-family="none" font-weight="none" font-size="none" text-anchor="none" style="mix-blend-mode: normal"><path d="M213.21572,201.36063c0,-15.10579 0,-31.16013 0,-38.31551c0,-2.38513 4.30184,-7.26305 5.45459,-7.26305c18.54868,0 37.59219,0 41.3648,0c1.25754,0 6.88535,4.49411 6.88535,6.87922c0,15.50332 0,29.3328 0,37.68073c0,2.78264 -6.02546,8.40713 -7.59738,8.40713c-4.71577,0 -21.83736,0 -40.07165,0c-1.15275,0 -6.03572,-4.20836 -6.03572,-7.38853z" data-paper-data="{&quot;origPos&quot;:null}" fill="#b2b2b2" stroke="none" stroke-width="0"/><path d="M213.07965,196.8294c0,-15.10579 0,-31.16013 0,-38.31551c0,-2.38513 4.30184,-7.26305 5.45459,-7.26305c18.54868,0 37.59219,0 41.36479,0c1.25754,0 6.88537,4.49411 6.88537,6.87922c0,15.50332 0,29.3328 0,37.68073c0,2.78264 -6.02546,8.40713 -7.59738,8.40713c-4.71577,0 -21.83736,0 -40.07165,0c-1.15275,0 -6.0357,-4.20836 -6.0357,-7.38853z" data-paper-data="{&quot;origPos&quot;:null}" fill="#cccccc" stroke="none" stroke-width="0"/><path d="M221.00001,178.5c0,-10.49341 8.50659,-19 19,-19c10.49341,0 19,8.50659 19,19c0,10.49341 -8.50659,19 -19,19c-10.49341,0 -19,-8.50659 -19,-19z" data-paper-data="{&quot;origPos&quot;:null}" fill="#5a29bb" stroke="#361972" stroke-width="4"/><text transform="translate(227.34394,186.6378) scale(0.55315,0.55315)" font-size="40" xml:space="preserve" data-paper-data="{&quot;origPos&quot;:null}" fill="#ffffff" fill-rule="nonzero" stroke="#ffffff" stroke-width="2" stroke-linecap="butt" stroke-linejoin="miter" stroke-miterlimit="10" stroke-dasharray="" stroke-dashoffset="0" font-family="Sans Serif" font-weight="normal" text-anchor="start" style="mix-blend-mode: normal"><tspan x="0" dy="0">10</tspan></text><text transform="translate(211.84422,220.76101) scale(0.27999,0.27999)" font-size="40" xml:space="preserve" data-paper-data="{&quot;origPos&quot;:null}" fill="#999999" fill-rule="nonzero" stroke="#989898" stroke-width="2" stroke-linecap="butt" stroke-linejoin="miter" stroke-miterlimit="10" stroke-dasharray="" stroke-dashoffset="0" font-family="Sans Serif" font-weight="normal" text-anchor="start" style="mix-blend-mode: normal"><tspan x="0" dy="0">Time Limit</tspan></text></g></g></svg>