<svg version="1.1" xmlns="http://www.w3.org/2000/svg" xmlns:xlink="http://www.w3.org/1999/xlink" width="225.85062" height="337.59691" viewBox="0,0,225.85062,337.59691"><g transform="translate(-127.07469,-11.20154)"><g data-paper-data="{&quot;isPaintingLayer&quot;:true}" fill-rule="nonzero" stroke="none" stroke-width="1" stroke-linecap="butt" stroke-linejoin="miter" stroke-miterlimit="10" stroke-dasharray="" stroke-dashoffset="0" style="mix-blend-mode: normal"><g><path d="M348.64533,256.0585c-13.30742,36.8735 -49.48054,59.28601 -107.48936,66.61951c-2.63676,0.3296 -5.23233,0.5356 -7.8279,0.61799c-3.37836,4.94394 -7.7867,9.22868 -12.97782,12.56584c-13.59581,8.69308 -26.32645,12.93662 -38.89228,12.93662c-25.83205,0 -53.64169,-19.28134 -53.64169,-61.63437c0,-2.88396 0.12359,-6.63311 0.41199,-11.82424c0.12359,-2.22477 0.24719,-3.95515 0.28839,-5.23233c-0.7004,-3.21356 -1.07118,-6.46831 -1.07118,-9.76426v-19.94053c0,-3.25475 0.3296,-6.50951 0.98879,-9.76426c0.0412,-2.76037 0.1648,-5.85032 0.3708,-9.22868c-0.98879,-3.62555 -1.73038,-7.8279 -1.73038,-12.52463c0,-2.14236 0.1648,-4.28474 0.45319,-6.38592c1.56558,-11.04145 6.46831,-22.1241 14.7494,-30.98199c-2.84276,-7.9515 -4.32595,-16.35618 -4.32595,-24.96687v-21.01171c0,-8.52828 1.68917,-19.15774 9.97026,-45.60778c3.46075,-11.37104 4.57314,-14.9142 6.09753,-18.21015c8.11629,-18.21015 20.35253,-27.31524 29.25162,-31.80597c14.5434,-7.2511 30.158,-10.95906 46.39057,-10.95906c7.4983,0 14.667,0.78279 21.50611,2.26597c3.04876,-2.05997 6.30351,-3.79035 9.76426,-5.23233c4.40834,-1.89517 9.10509,-3.21356 14.29621,-4.03755c12.97782,-2.22477 26.69725,0.5356 38.64508,7.7867c12.56584,7.6631 26.98564,23.56608 25.21406,56.27845c-0.28839,5.76793 -0.78279,13.47222 -1.52437,23.52489c-0.0412,0.24719 -0.0412,0.4944 -0.08239,0.74158c-0.65919,7.2923 -1.60678,18.16895 -2.88396,32.54757c0.3296,5.56193 0.206,11.78305 -0.28839,19.11654c-0.206,2.80156 -0.65919,5.60313 -1.40078,8.3223c-0.1648,0.61799 -0.3296,1.19478 -0.4944,1.73038c5.56193,7.1275 9.35227,14.25501 11.94785,20.43492c2.43077,4.90273 4.49075,10.54705 6.30351,17.42737c0.7004,2.59557 1.15359,5.23233 1.35957,7.91029c1.85397,23.11289 0.90638,36.74991 -3.37836,48.28575z" fill="#ffab19"/><path d="M306.85262,211.41478c1.20714,14.98423 0.95995,24.6414 -0.7251,28.99205c-7.01215,19.81281 -30.56999,32.25094 -70.66529,37.32671c-13.53402,1.69329 -27.05979,-4.70909 -40.59382,-19.20719c0,2.17533 0.48203,8.6972 1.45434,19.57387c0.7251,7.9721 0.60151,14.49397 -0.36256,19.56562c-6.04396,3.86451 -10.87253,5.80088 -14.49809,5.80088c-5.56193,0 -8.33464,-5.43421 -8.33464,-16.31086c0,-1.93226 0.11947,-5.00985 0.36256,-9.23692c0.23895,-4.22294 0.36256,-7.18519 0.36256,-8.87848c0,-4.10758 -0.36256,-7.00391 -1.08766,-8.6972v-19.93229c0,-0.48203 0.11947,-1.02587 0.36256,-1.6315c0.23895,-0.60151 0.48203,-1.14535 0.7251,-1.6315c-0.24307,-3.37836 -0.12359,-8.57361 0.36256,-15.58164c0.48203,-4.35067 0.48203,-7.12338 0,-8.33464c-1.21126,-2.41017 -1.80866,-3.86039 -1.80866,-4.34655c0.95995,-6.76494 5.92037,-10.14742 14.85652,-10.14742c5.79676,0 9.29871,2.05585 10.50998,6.15932c0,3.86451 0.48203,9.54592 1.45022,17.03186c1.45434,8.6972 6.03984,17.39852 13.77297,26.0916c8.45413,9.90848 16.5457,14.49809 24.28296,13.77297c8.6972,-0.95995 17.3944,-3.0158 26.0916,-6.15932c12.07968,-4.35067 19.32666,-9.42232 21.74507,-15.21908c1.68505,-4.35067 2.53377,-8.93617 2.53377,-13.77297c0,-14.73292 -5.43421,-25.72906 -16.30674,-32.97604c-4.83681,-3.13939 -13.77297,-5.67728 -26.82084,-7.61366c-7.49006,-0.95995 -12.0838,-1.45022 -13.76885,-1.45022c-11.59765,0.24307 -22.41251,-3.50195 -32.43632,-11.23509c-10.02795,-7.72901 -15.0378,-16.67342 -15.0378,-26.82084v-21.01583c0,-4.5855 2.65736,-15.33855 7.97622,-32.25094c2.41017,-7.97622 3.7409,-12.19916 3.98811,-12.68531c2.17121,-5.07165 4.94806,-8.45413 8.33052,-10.14742c8.21105,-4.10346 16.90825,-6.15932 26.0916,-6.15932c17.87644,0 31.04378,7.24698 39.50203,21.74095c0.7251,0.7251 1.93226,1.81278 3.62555,3.26299c0.23895,-3.37836 0.7251,-8.57361 1.45022,-15.58164c-0.24307,-3.13939 -0.48615,-6.15932 -0.7251,-9.05976c0,-3.37836 1.68505,-5.67316 5.07165,-6.88443c0.96407,-0.48203 2.29482,-0.84459 3.98811,-1.08766c2.41429,-0.48203 5.01397,0.12359 7.79494,1.80866c2.77273,1.69329 3.92218,6.76906 3.44015,15.21908c-0.24307,5.31472 -0.7251,12.80478 -1.45022,22.46605c-0.7251,7.97622 -1.80866,20.17537 -3.26299,36.60571c0.48203,3.86451 0.48203,9.18336 0,15.94418c-1.21126,4.58962 -4.83681,6.88443 -10.87253,6.88443c-3.14352,0 -6.15932,-0.84459 -9.05976,-2.53377c-1.45022,-4.5855 -2.17121,-6.526 -2.17121,-5.80088c0.47791,-6.52187 -0.84871,-15.21908 -3.98811,-26.0916c-2.66148,-5.55369 -6.3406,-13.46398 -11.05381,-23.735c-4.71321,-10.2669 -10.93433,-15.76704 -18.66335,-16.49214c-9.66539,-0.7251 -15.94418,2.53789 -18.84463,9.78486c-0.96407,3.14352 -2.29894,7.73725 -3.98399,13.77297c-2.90045,8.94029 -4.71321,17.51801 -5.43833,25.72906c-0.24307,2.66148 -0.48615,3.74914 -0.7251,3.26299c0.7251,4.83681 1.5697,9.66539 2.53789,14.49809c1.20714,6.03984 4.16939,10.63358 8.87848,13.76885c4.71321,3.14352 13.70706,5.07165 26.998,5.79676c32.61348,1.9405 52.78473,13.29506 60.51787,34.06782c1.20302,1.93638 2.41017,5.19525 3.62143,9.78074z" fill="#ffffff"/></g></g></g></svg>