<svg version="1.1" xmlns="http://www.w3.org/2000/svg" xmlns:xlink="http://www.w3.org/1999/xlink" width="30.84081" height="33.69964"><g transform="translate(-224.57962,-163.15018)"><g data-paper-data="{&quot;isPaintingLayer&quot;:true}" fill="none" fill-rule="nonzero" stroke="none" stroke-width="none" stroke-linecap="butt" stroke-linejoin="miter" stroke-miterlimit="10" stroke-dasharray="" stroke-dashoffset="0" font-family="none" font-weight="none" font-size="none" text-anchor="none" style="mix-blend-mode: normal"><path d="M224.65757,192.61756c0,-8.65282 0,-17.84898 0,-21.94769c0,-1.36624 2.46416,-4.16038 3.12447,-4.16038c10.62496,0 21.53336,0 23.69437,0c0.72034,0 3.94403,2.57429 3.94403,3.94052c0,8.88053 0,16.80226 0,21.58408c0,1.59394 -3.45147,4.81573 -4.35189,4.81573c-2.70126,0 -12.50876,0 -22.95363,0c-0.66031,0 -3.45735,-2.41061 -3.45735,-4.23226z" data-paper-data="{&quot;origPos&quot;:null,&quot;index&quot;:null}" fill="#361972" stroke="none" stroke-width="0"/><path d="M224.57963,189.25825c0,-8.65282 0,-17.84898 0,-21.94769c0,-1.36624 2.46416,-4.16038 3.12447,-4.16038c10.62496,0 21.53336,0 23.69436,0c0.72034,0 3.94404,2.57429 3.94404,3.94052c0,8.88053 0,16.80226 0,21.58408c0,1.59394 -3.45147,4.81573 -4.35189,4.81573c-2.70126,0 -12.50876,0 -22.95363,0c-0.66031,0 -3.45734,-2.41061 -3.45734,-4.23226z" data-paper-data="{&quot;origPos&quot;:null,&quot;index&quot;:null}" fill="#5a29bb" stroke="none" stroke-width="0"/><text transform="translate(245.72001,185.76875) rotate(-180) scale(0.5,-0.5)" font-size="40" xml:space="preserve" data-paper-data="{&quot;origPos&quot;:null,&quot;index&quot;:null}" fill="#ffffff" fill-rule="nonzero" stroke="#ffffff" stroke-width="4" stroke-linecap="butt" stroke-linejoin="miter" stroke-miterlimit="10" stroke-dasharray="" stroke-dashoffset="0" font-family="Sans Serif" font-weight="normal" text-anchor="start" style="mix-blend-mode: normal"><tspan x="0" dy="0">&lt;</tspan></text></g></g></svg>