<svg version="1.1" xmlns="http://www.w3.org/2000/svg" xmlns:xlink="http://www.w3.org/1999/xlink" width="23.436" height="25.60842"><g transform="translate(-228.42242,-167.05538)"><g data-paper-data="{&quot;isPaintingLayer&quot;:true}" fill="none" fill-rule="nonzero" stroke="none" stroke-width="none" stroke-linecap="butt" stroke-linejoin="miter" stroke-miterlimit="10" stroke-dasharray="" stroke-dashoffset="0" font-family="none" font-weight="none" font-size="none" text-anchor="none" style="mix-blend-mode: normal"><path d="M228.48164,189.44771c0,-6.5753 0,-13.56348 0,-16.6781c0,-1.03821 1.87252,-3.16149 2.37429,-3.16149c8.07393,0 16.36325,0 18.00541,0c0.54739,0 2.99708,1.95621 2.99708,2.99441c0,6.74834 0,12.76807 0,16.40179c0,1.21124 -2.62278,3.65948 -3.30701,3.65948c-2.05269,0 -9.50544,0 -17.44251,0c-0.50177,0 -2.62724,-1.83183 -2.62724,-3.2161z" data-paper-data="{&quot;origPos&quot;:null}" fill="#2ccd00" stroke="none" stroke-width="0"/><path d="M228.42242,186.89497c0,-6.5753 0,-13.56348 0,-16.6781c0,-1.03821 1.87252,-3.16149 2.37429,-3.16149c8.07393,0 16.36325,0 18.0054,0c0.54739,0 2.99709,1.95621 2.99709,2.99441c0,6.74834 0,12.76807 0,16.40179c0,1.21124 -2.62278,3.65948 -3.30701,3.65948c-2.05269,0 -9.50544,0 -17.44251,0c-0.50177,0 -2.62724,-1.83183 -2.62724,-3.2161z" data-paper-data="{&quot;origPos&quot;:null}" fill="#32e700" stroke="none" stroke-width="0"/><path d="M232.646,181.11346l2.0236,-2.56677l3.3691,2.55716l6.52954,-8.07145l2.78576,1.82181l-8.61919,10.64228z" data-paper-data="{&quot;origPos&quot;:null,&quot;origRot&quot;:0}" fill="#ffffff" stroke="#ffffff" stroke-width="1"/></g></g></svg>