<svg version="1.1" xmlns="http://www.w3.org/2000/svg" xmlns:xlink="http://www.w3.org/1999/xlink" width="59.96301" height="34.10982"><g transform="translate(-210.0185,-162.94509)"><g data-paper-data="{&quot;isPaintingLayer&quot;:true}" fill="none" fill-rule="nonzero" stroke="none" stroke-width="none" stroke-linecap="butt" stroke-linejoin="miter" stroke-miterlimit="10" stroke-dasharray="" stroke-dashoffset="0" font-family="none" font-weight="none" font-size="none" text-anchor="none" style="mix-blend-mode: normal"><path d="M210.09645,192.82265c0,-8.65282 0,-17.84898 0,-21.94769c0,-1.36624 2.44525,-4.16038 3.73065,-4.16038c20.68326,0 47.80834,0 52.0151,0c1.40225,0 4.13931,2.57429 4.13931,3.94052c0,8.88053 0,16.80226 0,21.58408c0,1.59394 -2.38198,4.81573 -4.1348,4.81573c-5.25845,0 -31.42721,0 -51.7599,0c-1.2854,0 -3.99035,-2.41061 -3.99035,-4.23226z" data-paper-data="{&quot;origPos&quot;:null}" fill="#361972" stroke="none" stroke-width="0"/><path d="M210.01851,189.05316c0,-8.65282 0,-17.84898 0,-21.94769c0,-1.36624 2.44524,-4.16038 3.73064,-4.16038c20.68325,0 47.80833,0 52.01509,0c1.40225,0 4.13931,2.57429 4.13931,3.94052c0,8.88053 0,16.80226 0,21.58408c0,1.59394 -2.38198,4.81573 -4.1348,4.81573c-5.25845,0 -31.42721,0 -51.7599,0c-1.2854,0 -3.99035,-2.41061 -3.99035,-4.23226z" data-paper-data="{&quot;origPos&quot;:null}" fill="#5a29bb" stroke="none" stroke-width="0"/><text transform="translate(221.80739,182.6955) scale(0.381,0.381)" font-size="40" xml:space="preserve" data-paper-data="{&quot;origPos&quot;:null}" fill="#ffffff" fill-rule="nonzero" stroke="#ffffff" stroke-width="2" stroke-linecap="butt" stroke-linejoin="miter" stroke-miterlimit="10" stroke-dasharray="" stroke-dashoffset="0" font-family="Sans Serif" font-weight="normal" text-anchor="start" style="mix-blend-mode: normal"><tspan x="0" dy="0">Play!</tspan></text></g></g></svg>