<svg height="376" width="492" xmlns:xlink="http://www.w3.org/1999/xlink" xmlns="http://www.w3.org/2000/svg" version="1.1"><g transform="translate(3,3)"><g style="mix-blend-mode: normal" text-anchor="none" font-size="none" font-weight="none" font-family="none" stroke-dashoffset="0" stroke-dasharray="" stroke-miterlimit="10" stroke-linejoin="miter" stroke-linecap="butt" stroke-width="0" stroke="none" fill-rule="nonzero" fill="none" data-paper-data="{&quot;isPaintingLayer&quot;:true}"><path fill="#e5e5e5" data-paper-data="{&quot;origPos&quot;:null}" d="M-3,373v-376h492v376z"></path><g data-paper-data="{&quot;origPos&quot;:null}"><path fill="#e52e2e" data-paper-data="{&quot;origPos&quot;:null}" d="M4.33333,273.38889c0,-19.59987 0,-40.66078 0,-50.22222c0,-3.18715 4.47141,-8.16667 7.33333,-8.16667c8.58578,0 129.56914,0 212.5,0c2.27653,0 5.83334,3.35356 5.83334,5.5c0,21.03083 0,46.53893 0,53.88889c0,2.44999 -3.65842,6.27778 -6,6.27778c0,0 -207.00373,0 -213.83333,0c-2.27653,0 -5.83333,-4.11232 -5.83333,-7.27778z"></path><path fill="#2e77e5" data-paper-data="{&quot;origPos&quot;:null}" d="M251.33333,273.13889c0,-19.59986 0,-40.66077 0,-50.22222c0,-3.18714 4.47141,-8.16667 7.33334,-8.16667c8.58578,0 129.56915,0 212.5,0c2.27654,0 5.83333,3.35356 5.83333,5.5c0,21.03083 0,46.53893 0,53.88889c0,2.44999 -3.65842,6.27778 -6,6.27778c0,0 -207.00373,0 -213.83333,0c-2.27653,0 -5.83334,-4.11232 -5.83334,-7.27778z"></path><path fill="#ff3333" data-paper-data="{&quot;origPos&quot;:null}" d="M4.33333,268.38889c0,-19.59987 0,-40.66078 0,-50.22222c0,-3.18715 4.47141,-8.16667 7.33333,-8.16667c8.58578,0 129.56914,0 212.5,0c2.27653,0 5.83334,3.35356 5.83334,5.5c0,21.03083 0,46.53893 0,53.88889c0,2.44999 -3.65842,6.27778 -6,6.27778c0,0 -207.00373,0 -213.83333,0c-2.27653,0 -5.83333,-4.11232 -5.83333,-7.27778z"></path><path fill="#3386ff" data-paper-data="{&quot;origPos&quot;:null}" d="M251.33333,268.13889c0,-19.59986 0,-40.66077 0,-50.22222c0,-3.18714 4.47141,-8.16667 7.33334,-8.16667c8.58578,0 129.56915,0 212.5,0c2.27654,0 5.83333,3.35356 5.83333,5.5c0,21.03083 0,46.53893 0,53.88889c0,2.44999 -3.65842,6.27778 -6,6.27778c0,0 -207.00373,0 -213.83333,0c-2.27653,0 -5.83334,-4.11232 -5.83334,-7.27778z"></path><path fill="#e5bf00" data-paper-data="{&quot;origPos&quot;:null}" d="M4,350.13888c0,-19.59987 0,-40.66077 0,-50.22221c0,-3.18714 4.47141,-8.16667 7.33334,-8.16667c8.58578,0 129.56915,0 212.5,0c2.27654,0 5.83334,3.35356 5.83334,5.5c0,21.03083 0,46.53893 0,53.88889c0,2.44999 -3.65842,6.27778 -6,6.27778c0,0 -207.00374,0 -213.83334,0c-2.27654,0 -5.83334,-4.11232 -5.83334,-7.27778z"></path><path fill="#2ccd00" data-paper-data="{&quot;origPos&quot;:null}" d="M251.33333,349.80555c0,-19.59987 0,-40.66077 0,-50.22222c0,-3.18714 4.47141,-8.16667 7.33334,-8.16667c8.58578,0 129.56915,0 212.5,0c2.27653,0 5.83333,3.35356 5.83333,5.5c0,21.03083 0,46.53893 0,53.88889c0,2.44999 -3.65842,6.27778 -6,6.27778c0,0 -207.00373,0 -213.83333,0c-2.27654,0 -5.83334,-4.11232 -5.83334,-7.27778z"></path><path fill="#ffd400" data-paper-data="{&quot;origPos&quot;:null}" d="M4,345.13888c0,-19.59987 0,-40.66077 0,-50.22221c0,-3.18714 4.47141,-8.16667 7.33334,-8.16667c8.58578,0 129.56915,0 212.5,0c2.27654,0 5.83334,3.35356 5.83334,5.5c0,21.03083 0,46.53893 0,53.88889c0,2.44999 -3.65842,6.27778 -6,6.27778c0,0 -207.00374,0 -213.83334,0c-2.27654,0 -5.83334,-4.11232 -5.83334,-7.27778z"></path><path fill="#32e700" data-paper-data="{&quot;origPos&quot;:null}" d="M251.33333,345.20555c0,-19.59987 0,-40.66077 0,-50.22222c0,-3.18714 4.47141,-8.16667 7.33334,-8.16667c8.58578,0 129.56915,0 212.5,0c2.27653,0 5.83333,3.35356 5.83333,5.5c0,21.03083 0,46.53893 0,53.88889c0,2.44999 -3.65842,6.27778 -6,6.27778c0,0 -207.00373,0 -213.83333,0c-2.27654,0 -5.83334,-4.11232 -5.83334,-7.27778z"></path></g><path fill="#ffffff" data-paper-data="{&quot;origPos&quot;:null}" d="M11,318.8243c0,-6.1204 4.96156,-11.08196 11.08196,-11.08196c6.1204,0 11.08196,4.96156 11.08196,11.08196c0,6.1204 -4.96156,11.08196 -11.08195,11.08196c-6.1204,0 -11.08196,-4.96156 -11.08196,-11.08196z"></path><path fill="#ffffff" data-paper-data="{&quot;origPos&quot;:null}" d="M12.25132,254.612l10.17289,-20.77867l9.95645,20.77867z"></path><path fill="#ffffff" data-paper-data="{&quot;origPos&quot;:null,&quot;origRot&quot;:0}" d="M262.87997,328.91523v-20.22221h20.22221v20.22221z"></path><path fill="#ffffff" data-paper-data="{&quot;origPos&quot;:null,&quot;origRot&quot;:0}" d="M273.49434,256.62212l-13.50636,-13.50636l13.50636,-13.50636l13.50636,13.50636z"></path></g></g></svg>