<svg version="1.1" xmlns="http://www.w3.org/2000/svg" xmlns:xlink="http://www.w3.org/1999/xlink" width="53.84081" height="73.15004"><g transform="translate(-213.07963,-151.25084)"><g data-paper-data="{&quot;isPaintingLayer&quot;:true}" fill="none" fill-rule="nonzero" stroke="none" stroke-width="none" stroke-linecap="butt" stroke-linejoin="miter" stroke-miterlimit="10" stroke-dasharray="" stroke-dashoffset="0" font-family="none" font-weight="none" font-size="none" text-anchor="none" style="mix-blend-mode: normal"><text transform="translate(222.03025,220.76101) scale(0.27999,0.27999)" font-size="40" xml:space="preserve" data-paper-data="{&quot;origPos&quot;:null}" fill="#999999" fill-rule="nonzero" stroke="#989898" stroke-width="2" stroke-linecap="butt" stroke-linejoin="miter" stroke-miterlimit="10" stroke-dasharray="" stroke-dashoffset="0" font-family="Sans Serif" font-weight="normal" text-anchor="start" style="mix-blend-mode: normal"><tspan x="0" dy="0">Classic</tspan></text><path d="M213.2157,201.36063c0,-15.10579 0,-31.16013 0,-38.31551c0,-2.38513 4.30184,-7.26305 5.45459,-7.26305c18.54868,0 37.59219,0 41.3648,0c1.25754,0 6.88535,4.49411 6.88535,6.87922c0,15.50332 0,29.3328 0,37.68073c0,2.78264 -6.02546,8.40713 -7.59738,8.40713c-4.71577,0 -21.83736,0 -40.07165,0c-1.15275,0 -6.03572,-4.20836 -6.03572,-7.38853z" data-paper-data="{&quot;origPos&quot;:null}" fill="#b2b2b2" stroke="none" stroke-width="0"/><path d="M213.07963,196.8294c0,-15.10579 0,-31.16013 0,-38.31551c0,-2.38513 4.30184,-7.26305 5.45459,-7.26305c18.54868,0 37.59219,0 41.36479,0c1.25754,0 6.88537,4.49411 6.88537,6.87922c0,15.50332 0,29.3328 0,37.68073c0,2.78264 -6.02546,8.40713 -7.59738,8.40713c-4.71577,0 -21.83736,0 -40.07165,0c-1.15275,0 -6.0357,-4.20836 -6.0357,-7.38853z" data-paper-data="{&quot;origPos&quot;:null}" fill="#cccccc" stroke="none" stroke-width="0"/><g stroke="none" stroke-width="0"><path d="M220.15003,167.55714c0,-4.62538 3.74962,-8.375 8.375,-8.375c4.62538,0 8.375,3.74962 8.375,8.375c0,4.62538 -3.74962,8.375 -8.375,8.375c-4.62538,0 -8.375,-3.74962 -8.375,-8.375z" data-paper-data="{&quot;origPos&quot;:null}" fill="#e52e2e"/><path d="M243.10003,167.50714c0,-4.62538 3.74962,-8.375 8.375,-8.375c4.62539,0 8.375,3.74962 8.375,8.375c0,4.62538 -3.74961,8.375 -8.375,8.375c-4.62538,0 -8.375,-3.74962 -8.375,-8.375z" data-paper-data="{&quot;origPos&quot;:null}" fill="#2e77e5"/><path d="M220.25003,190.05714c0,-4.62538 3.74962,-8.375 8.375,-8.375c4.62538,0 8.375,3.74962 8.375,8.375c0,4.62538 -3.74962,8.375 -8.375,8.375c-4.62538,0 -8.375,-3.74962 -8.375,-8.375z" data-paper-data="{&quot;origPos&quot;:null}" fill="#e5bf00"/><path d="M242.80003,190.20714c0,-4.62538 3.74962,-8.375 8.375,-8.375c4.62538,0 8.375,3.74962 8.375,8.375c0,4.62538 -3.74962,8.375 -8.375,8.375c-4.62538,0 -8.375,-3.74962 -8.375,-8.375z" data-paper-data="{&quot;origPos&quot;:null}" fill="#2ccd00"/><path d="M220.15003,165.7c0,-4.62538 3.74962,-8.375 8.375,-8.375c4.62538,0 8.375,3.74962 8.375,8.375c0,4.62538 -3.74962,8.375 -8.375,8.375c-4.62538,0 -8.375,-3.74962 -8.375,-8.375z" data-paper-data="{&quot;origPos&quot;:null}" fill="#ff3333"/><path d="M243.10003,165.65c0,-4.62538 3.74962,-8.375 8.375,-8.375c4.62539,0 8.375,3.74962 8.375,8.375c0,4.62538 -3.74962,8.375 -8.375,8.375c-4.62538,0 -8.375,-3.74962 -8.375,-8.375z" data-paper-data="{&quot;origPos&quot;:null}" fill="#3386ff"/><path d="M220.25003,188.2c0,-4.62538 3.74962,-8.375 8.375,-8.375c4.62538,0 8.375,3.74962 8.375,8.375c0,4.62538 -3.74962,8.375 -8.375,8.375c-4.62538,0 -8.375,-3.74962 -8.375,-8.375z" data-paper-data="{&quot;origPos&quot;:null}" fill="#ffd400"/><path d="M242.80003,188.35c0,-4.62538 3.74962,-8.375 8.375,-8.375c4.62538,0 8.375,3.74962 8.375,8.375c0,4.62538 -3.74962,8.375 -8.375,8.375c-4.62538,0 -8.375,-3.74962 -8.375,-8.375z" data-paper-data="{&quot;origPos&quot;:null}" fill="#32e700"/></g></g></g></svg>