<svg height="375" width="492" xmlns:xlink="http://www.w3.org/1999/xlink" xmlns="http://www.w3.org/2000/svg" version="1.1"><g transform="translate(3,2)"><g style="mix-blend-mode: normal" text-anchor="none" font-size="none" font-weight="none" font-family="none" stroke-dashoffset="0" stroke-dasharray="" stroke-miterlimit="10" stroke-linejoin="miter" stroke-linecap="butt" stroke-width="none" stroke="none" fill-rule="nonzero" fill="none" data-paper-data="{&quot;isPaintingLayer&quot;:true}"><path stroke-width="0" stroke="none" fill="#e5e5e5" data-paper-data="{&quot;origPos&quot;:null}" d="M-3,373v-375h492v375z"></path><text style="mix-blend-mode: normal" text-anchor="start" font-weight="normal" font-family="Sans Serif" stroke-dashoffset="0" stroke-dasharray="" stroke-miterlimit="10" stroke-linejoin="miter" stroke-linecap="butt" stroke-width="2" stroke="#5a29bb" fill-rule="nonzero" fill="#5a29bb" data-paper-data="{&quot;origPos&quot;:null}" xml:space="preserve" font-size="40" transform="translate(195.32582,35.19148) scale(0.34929,0.34929)"><tspan dy="0" x="0">Create a Quiz</tspan></text><text style="mix-blend-mode: normal" text-anchor="start" font-weight="normal" font-family="Sans Serif" stroke-dashoffset="0" stroke-dasharray="" stroke-miterlimit="10" stroke-linejoin="miter" stroke-linecap="butt" stroke-width="2" stroke="#5a29bb" fill-rule="nonzero" fill="#5a29bb" data-paper-data="{&quot;origPos&quot;:null}" xml:space="preserve" font-size="40" transform="translate(14.32582,67.19148) scale(0.34929,0.34929)"><tspan dy="0" x="0">Title</tspan></text><text style="mix-blend-mode: normal" text-anchor="start" font-weight="normal" font-family="Sans Serif" stroke-dashoffset="0" stroke-dasharray="" stroke-miterlimit="10" stroke-linejoin="miter" stroke-linecap="butt" stroke-width="2" stroke="#5a29bb" fill-rule="nonzero" fill="#5a29bb" data-paper-data="{&quot;origPos&quot;:null}" xml:space="preserve" font-size="40" transform="translate(15.32582,117.19148) scale(0.34929,0.34929)"><tspan dy="0" x="0">Questions</tspan></text><g stroke-width="0" stroke="none"><path fill="#b2b2b2" data-paper-data="{&quot;origPos&quot;:null}" d="M13,97.1579c0,-4.80639 0,-8.34377 0,-13.68421c0,-2.13618 2.37123,-5.47369 6.5347,-5.47369c154.46484,0 390.37335,0 402.86376,0c4.16348,0 5.60154,2.92032 5.60154,4.78947c0,5.34044 0,8.34377 0,13.68421c0,1.86916 -1.70457,5.12281 -5.86804,5.12281c-12.49041,0 -249.11624,-0.33334 -403.99743,-0.33334c-2.91443,0 -5.13453,-2.50313 -5.13453,-4.10527z"></path><path fill="#cccccc" data-paper-data="{&quot;origPos&quot;:null}" d="M13,93.1579c0,-4.80639 0,-8.34377 0,-13.68421c0,-2.13618 2.37123,-5.47369 6.53471,-5.47369c154.46484,0 390.37334,0 402.86375,0c4.16348,0 5.60154,2.92032 5.60154,4.78947c0,5.34044 0,8.34377 0,13.68421c0,1.86916 -1.70456,5.12281 -5.86804,5.12281c-12.49041,0 -249.11624,-0.33333 -403.99743,-0.33333c-2.91443,0 -5.13453,-2.50313 -5.13453,-4.10527z"></path></g><g stroke-width="0" stroke="none" data-paper-data="{&quot;origPos&quot;:null}"><path fill="#b2b2b2" data-paper-data="{&quot;origPos&quot;:null}" d="M13,147.1579c0,-4.80639 0,-8.34377 0,-13.68421c0,-2.13618 2.37123,-5.47369 6.5347,-5.47369c154.46484,0 390.37335,0 402.86376,0c4.16348,0 5.60154,2.92032 5.60154,4.78947c0,5.34044 0,8.34377 0,13.68421c0,1.86916 -1.70457,5.12281 -5.86804,5.12281c-12.49041,0 -249.11624,-0.33334 -403.99743,-0.33334c-2.91443,0 -5.13453,-2.50313 -5.13453,-4.10527z"></path><path fill="#cccccc" data-paper-data="{&quot;origPos&quot;:null}" d="M13,143.1579c0,-4.80639 0,-8.34377 0,-13.68421c0,-2.13618 2.37123,-5.47369 6.53471,-5.47369c154.46484,0 390.37334,0 402.86375,0c4.16348,0 5.60154,2.92032 5.60154,4.78947c0,5.34044 0,8.34377 0,13.68421c0,1.86916 -1.70456,5.12281 -5.86804,5.12281c-12.49041,0 -249.11624,-0.33333 -403.99743,-0.33333c-2.91443,0 -5.13453,-2.50313 -5.13453,-4.10527z"></path></g><g stroke-width="0" stroke="none" data-paper-data="{&quot;origPos&quot;:null}"><path fill="#b2b2b2" data-paper-data="{&quot;origPos&quot;:null}" d="M13,180.1579c0,-4.80639 0,-8.34377 0,-13.68421c0,-2.13618 2.37123,-5.47369 6.5347,-5.47369c154.46484,0 390.37335,0 402.86376,0c4.16348,0 5.60154,2.92032 5.60154,4.78947c0,5.34044 0,8.34377 0,13.68421c0,1.86916 -1.70457,5.12281 -5.86804,5.12281c-12.49041,0 -249.11624,-0.33334 -403.99743,-0.33334c-2.91443,0 -5.13453,-2.50313 -5.13453,-4.10527z"></path><path fill="#cccccc" data-paper-data="{&quot;origPos&quot;:null}" d="M13,176.1579c0,-4.80639 0,-8.34377 0,-13.68421c0,-2.13618 2.37123,-5.47369 6.53471,-5.47369c154.46484,0 390.37334,0 402.86375,0c4.16348,0 5.60154,2.92032 5.60154,4.78947c0,5.34044 0,8.34377 0,13.68421c0,1.86916 -1.70456,5.12281 -5.86804,5.12281c-12.49041,0 -249.11624,-0.33333 -403.99743,-0.33333c-2.91443,0 -5.13453,-2.50313 -5.13453,-4.10527z"></path></g><g stroke-width="0" stroke="none" data-paper-data="{&quot;origPos&quot;:null}"><path fill="#b2b2b2" data-paper-data="{&quot;origPos&quot;:null}" d="M13,214.1579c0,-4.80639 0,-8.34377 0,-13.68421c0,-2.13618 2.37123,-5.47369 6.5347,-5.47369c154.46484,0 390.37335,0 402.86376,0c4.16348,0 5.60154,2.92032 5.60154,4.78947c0,5.34044 0,8.34377 0,13.68421c0,1.86916 -1.70457,5.12281 -5.86804,5.12281c-12.49041,0 -249.11624,-0.33334 -403.99743,-0.33334c-2.91443,0 -5.13453,-2.50313 -5.13453,-4.10527z"></path><path fill="#cccccc" data-paper-data="{&quot;origPos&quot;:null}" d="M13,210.1579c0,-4.80639 0,-8.34377 0,-13.68421c0,-2.13618 2.37123,-5.47369 6.53471,-5.47369c154.46484,0 390.37334,0 402.86375,0c4.16348,0 5.60154,2.92032 5.60154,4.78947c0,5.34044 0,8.34377 0,13.68421c0,1.86916 -1.70456,5.12281 -5.86804,5.12281c-12.49041,0 -249.11624,-0.33333 -403.99743,-0.33333c-2.91443,0 -5.13453,-2.50313 -5.13453,-4.10527z"></path></g><g stroke-width="0" stroke="none" data-paper-data="{&quot;origPos&quot;:null}"><path fill="#b2b2b2" data-paper-data="{&quot;origPos&quot;:null}" d="M13,247.1579c0,-4.80639 0,-8.34377 0,-13.68421c0,-2.13618 2.37123,-5.47369 6.5347,-5.47369c154.46484,0 390.37335,0 402.86376,0c4.16348,0 5.60154,2.92032 5.60154,4.78947c0,5.34044 0,8.34377 0,13.68421c0,1.86916 -1.70457,5.12281 -5.86804,5.12281c-12.49041,0 -249.11624,-0.33334 -403.99743,-0.33334c-2.91443,0 -5.13453,-2.50313 -5.13453,-4.10527z"></path><path fill="#cccccc" data-paper-data="{&quot;origPos&quot;:null}" d="M13,243.1579c0,-4.80639 0,-8.34377 0,-13.68421c0,-2.13618 2.37123,-5.47369 6.53471,-5.47369c154.46484,0 390.37334,0 402.86375,0c4.16348,0 5.60154,2.92032 5.60154,4.78947c0,5.34044 0,8.34377 0,13.68421c0,1.86916 -1.70456,5.12281 -5.86804,5.12281c-12.49041,0 -249.11624,-0.33333 -403.99743,-0.33333c-2.91443,0 -5.13453,-2.50313 -5.13453,-4.10527z"></path></g></g></g></svg>