<svg viewBox="0,0,637.8712,506.31578" height="506.31578" width="637.8712" xmlns:xlink="http://www.w3.org/1999/xlink" xmlns="http://www.w3.org/2000/svg" version="1.1"><defs><radialGradient id="color-1" gradientUnits="userSpaceOnUse" r="318.9356" cy="167.71191" cx="240.00002"><stop stop-color="#b6dcf2" offset="0"></stop><stop stop-color="#88afcc" offset="1"></stop></radialGradient><linearGradient id="color-2" gradientUnits="userSpaceOnUse" y2="300.9251" x2="166.73778" y1="300.9251" x1="32.7568"><stop stop-color="#d484bd" offset="0"></stop><stop stop-color="#b55d82" offset="1"></stop></linearGradient><linearGradient id="color-3" gradientUnits="userSpaceOnUse" y2="295.73004" x2="445.55388" y1="295.73004" x1="276.6748"><stop stop-color="#81a4f1" offset="0"></stop><stop stop-color="#34548d" offset="1"></stop></linearGradient><linearGradient id="color-4" gradientUnits="userSpaceOnUse" y2="261.1579" x2="240.34085" y1="261.1579" x1="47.32183"><stop stop-color="#ffb45c" offset="0"></stop><stop stop-color="#ff9a22" offset="1"></stop></linearGradient><linearGradient id="color-5" gradientUnits="userSpaceOnUse" y2="252.6579" x2="290.84089" y1="252.6579" x1="97.82187"><stop stop-color="#fa9eec" offset="0"></stop><stop stop-color="#c15fb1" offset="1"></stop></linearGradient><linearGradient id="color-6" gradientUnits="userSpaceOnUse" y2="217.1579" x2="377.34089" y1="217.1579" x1="184.32187"><stop stop-color="#5bafff" offset="0"></stop><stop stop-color="#006bd4" offset="1"></stop></linearGradient></defs><g transform="translate(78.93561,73.15788)"><g style="mix-blend-mode: normal" stroke-dashoffset="0" stroke-dasharray="" stroke-miterlimit="10" stroke-linejoin="miter" stroke-linecap="butt" stroke-width="0" stroke="none" fill-rule="nonzero" data-paper-data="{&quot;isPaintingLayer&quot;:true}"><g><path fill="url(#color-1)" d="M-78.93561,408.58167v-481.73955h637.8712v481.73955z"></path><path fill="url(#color-2)" d="M166.73778,300.9251c0,47.77263 -30.33271,86.5 -67.75,86.5c-37.41729,0 -43.25,-8.72737 -43.25,-56.5c0,-47.77263 -45.66729,-116.5 -8.25,-116.5c37.41729,0 119.25,38.72737 119.25,86.5z"></path><path fill="url(#color-3)" data-paper-data="{&quot;index&quot;:null}" d="M280.56441,273.01782c21.75467,-70.31539 130.95576,-83.68386 154.96203,-76.25663c7.83317,2.42348 -6.5205,36.21602 -13.92746,71.84006c-6.38133,30.69123 -5.28668,61.96857 -7.59659,84.78067c-3.06344,30.25362 38.72657,16.96611 30.46889,42.90485c-0.43791,1.37555 -62.13398,-3.48798 -86.14025,-10.91521c-24.00627,-7.42723 -99.52129,-42.03835 -77.76662,-112.35374z"></path><path fill="url(#color-4)" d="M240.34085,283.54711c0,96.08378 -82.37104,110.1108 -107.5,110.1108c-25.12896,0 -85.50611,-17.73925 -85.51789,-19.62365c-0.22218,-35.5342 32.46918,-68.3979 38.4845,-107.30906c9.80046,-63.39594 13.76976,-138.06731 29.03339,-138.06731c25.12896,0 125.5,58.80542 125.5,154.8892z"></path><path fill="url(#color-5)" d="M290.84089,283.1579c0,130.89149 -82.37104,150 -107.5,150c-25.12896,0 -85.50611,-24.16554 -85.51789,-26.73259c-0.22218,-48.40697 32.46918,-93.17601 38.4845,-146.18328c9.80046,-86.36201 13.76976,-188.08414 29.03339,-188.08414c25.12896,0 125.5,80.10851 125.5,211z"></path><path fill="url(#color-6)" d="M377.34089,247.65791c0,130.89149 -82.37104,150 -107.5,150c-25.12896,0 -85.50611,-24.16554 -85.51789,-26.73259c-0.22218,-48.40697 32.46918,-93.17601 38.4845,-146.18328c9.80046,-86.36201 13.76976,-188.08414 29.03339,-188.08414c25.12896,0 125.5,80.10851 125.5,211z"></path></g></g></g></svg>