<svg version="1.1" xmlns="http://www.w3.org/2000/svg" xmlns:xlink="http://www.w3.org/1999/xlink" width="225.66667" height="70.66667"><g transform="translate(-4.33333,-210)"><g data-paper-data="{&quot;isPaintingLayer&quot;:true}" fill="#ffffff" fill-rule="nonzero" stroke="none" stroke-width="0" stroke-linecap="butt" stroke-linejoin="miter" stroke-miterlimit="10" stroke-dasharray="" stroke-dashoffset="0" font-family="none" font-weight="none" font-size="none" text-anchor="none" style="mix-blend-mode: normal"><path d="M4.33333,273.38889c0,-19.59987 0,-40.66078 0,-50.22222c0,-3.18715 4.47141,-8.16667 7.33333,-8.16667c8.58578,0 129.56914,0 212.5,0c2.27653,0 5.83334,3.35356 5.83334,5.5c0,21.03083 0,46.53893 0,53.88889c0,2.44999 -3.65842,6.27778 -6,6.27778c0,0 -207.00373,0 -213.83333,0c-2.27653,0 -5.83333,-4.11232 -5.83333,-7.27778z" data-paper-data="{&quot;origPos&quot;:null}"/><path d="M4.33333,268.38889c0,-19.59987 0,-40.66078 0,-50.22222c0,-3.18715 4.47141,-8.16667 7.33333,-8.16667c8.58578,0 129.56914,0 212.5,0c2.27653,0 5.83334,3.35356 5.83334,5.5c0,21.03083 0,46.53893 0,53.88889c0,2.44999 -3.65842,6.27778 -6,6.27778c0,0 -207.00373,0 -213.83333,0c-2.27653,0 -5.83333,-4.11232 -5.83333,-7.27778z" data-paper-data="{&quot;origPos&quot;:null}"/></g></g></svg>