<svg version="1.1" xmlns="http://www.w3.org/2000/svg" xmlns:xlink="http://www.w3.org/1999/xlink" width="225.66668" height="70.66667"><g transform="translate(-4,-286.75)"><g data-paper-data="{&quot;isPaintingLayer&quot;:true}" fill="#ffffff" fill-rule="nonzero" stroke="none" stroke-width="0" stroke-linecap="butt" stroke-linejoin="miter" stroke-miterlimit="10" stroke-dasharray="" stroke-dashoffset="0" font-family="none" font-weight="none" font-size="none" text-anchor="none" style="mix-blend-mode: normal"><path d="M4,350.13888c0,-19.59987 0,-40.66077 0,-50.22221c0,-3.18714 4.47141,-8.16667 7.33334,-8.16667c8.58578,0 129.56915,0 212.5,0c2.27654,0 5.83334,3.35356 5.83334,5.5c0,21.03083 0,46.53893 0,53.88889c0,2.44999 -3.65842,6.27778 -6,6.27778c0,0 -207.00374,0 -213.83334,0c-2.27654,0 -5.83334,-4.11232 -5.83334,-7.27778z" data-paper-data="{&quot;origPos&quot;:null}"/><path d="M4,345.13888c0,-19.59987 0,-40.66077 0,-50.22221c0,-3.18714 4.47141,-8.16667 7.33334,-8.16667c8.58578,0 129.56915,0 212.5,0c2.27654,0 5.83334,3.35356 5.83334,5.5c0,21.03083 0,46.53893 0,53.88889c0,2.44999 -3.65842,6.27778 -6,6.27778c0,0 -207.00374,0 -213.83334,0c-2.27654,0 -5.83334,-4.11232 -5.83334,-7.27778z" data-paper-data="{&quot;origPos&quot;:null}"/></g></g></svg>