<svg version="1.1" xmlns="http://www.w3.org/2000/svg" xmlns:xlink="http://www.w3.org/1999/xlink" width="221" height="76.70894"><g transform="translate(-129.5,-141.64554)"><g data-paper-data="{&quot;isPaintingLayer&quot;:true}" fill="none" fill-rule="nonzero" stroke="none" stroke-width="none" stroke-linecap="butt" stroke-linejoin="miter" stroke-miterlimit="10" stroke-dasharray="" stroke-dashoffset="0" font-family="none" font-weight="none" font-size="none" text-anchor="none" style="mix-blend-mode: normal"><path d="M129.5,211.21128c0,-8.36318 0,-36.03217 0,-59.0946c0,-2.01033 5.79251,-5.15122 9.5,-5.15122c78.05257,0 186.53593,0 200,0c4.48802,0 11.5,3.9506 11.5,6.47919c0,22.54417 0,49.40345 0,57.76663c0,2.78772 -6.40224,7.1432 -10.5,7.1432c0,0 -189.87751,0 -201,0c-3.70749,0 -9.5,-4.35548 -9.5,-7.1432z" data-paper-data="{&quot;origPos&quot;:null}" fill="#b2b2b2" stroke="none" stroke-width="0"/><path d="M129.5,205.89136c0,-8.36318 0,-36.03217 0,-59.0946c0,-2.01033 5.79251,-5.15122 9.5,-5.15122c78.05257,0 186.53593,0 200,0c4.48802,0 11.5,3.9506 11.5,6.47919c0,22.54417 0,49.40345 0,57.76663c0,2.78772 -6.40224,7.1432 -10.5,7.1432c0,0 -189.87751,0 -201,0c-3.70749,0 -9.5,-4.35548 -9.5,-7.1432z" data-paper-data="{&quot;origPos&quot;:null}" fill="#cccccc" stroke="none" stroke-width="0"/><text transform="translate(138.09358,156.05655) scale(0.29164,0.29164)" font-size="40" xml:space="preserve" data-paper-data="{&quot;origPos&quot;:null}" fill="#5a29bb" fill-rule="nonzero" stroke="#5a29bb" stroke-width="2" stroke-linecap="butt" stroke-linejoin="miter" stroke-miterlimit="10" stroke-dasharray="" stroke-dashoffset="0" font-family="Sans Serif" font-weight="normal" text-anchor="start" style="mix-blend-mode: normal"><tspan x="0" dy="0">scratch</tspan></text><text transform="translate(138.06199,193.40574) scale(0.25017,0.25017)" font-size="40" xml:space="preserve" data-paper-data="{&quot;origPos&quot;:null}" fill="#7f7f7f" fill-rule="nonzero" stroke="#7e7e7e" stroke-width="2" stroke-linecap="butt" stroke-linejoin="miter" stroke-miterlimit="10" stroke-dasharray="" stroke-dashoffset="0" font-family="Sans Serif" font-weight="normal" text-anchor="start" style="mix-blend-mode: normal"><tspan x="0" dy="0">By @rens2</tspan><tspan x="0" dy="48px">Added 9th of April 2020</tspan></text></g></g></svg>