<svg version="1.1" xmlns="http://www.w3.org/2000/svg" xmlns:xlink="http://www.w3.org/1999/xlink" width="41.85469" height="41.8547"><g transform="translate(-219.07266,-159.07265)"><g data-paper-data="{&quot;isPaintingLayer&quot;:true}" fill="none" fill-rule="nonzero" stroke="none" stroke-width="0" stroke-linecap="butt" stroke-linejoin="miter" stroke-miterlimit="10" stroke-dasharray="" stroke-dashoffset="0" font-family="none" font-weight="none" font-size="none" text-anchor="none" style="mix-blend-mode: normal"><path d="M219.07267,195.34672c0,-12.3188 0,-26.05259 0,-31.56542c0,-1.8376 3.29637,-4.70865 5.40624,-4.70865c12.25074,0 25.46984,0 31.39102,0c1.97374,0 5.05743,2.97739 5.05743,4.88306c0,5.71701 0,19.03395 0,31.21662c0,2.24598 -3.19003,5.75502 -5.23184,5.75502c0,0 -25.64421,0 -31.56542,0c-1.97374,0 -5.05743,-3.40271 -5.05743,-5.58062z" data-paper-data="{&quot;origPos&quot;:null}" fill="#70b9ff"/><path d="M230.03433,179.61314c-0.00138,-1.35709 14.82426,-10.51502 16.22409,-9.63305c1.19002,0.74978 1.22916,19.16676 0,20.02661c-1.46142,1.02232 -16.22268,-9.01683 -16.22409,-10.39356z" data-paper-data="{&quot;origPos&quot;:null}" fill="#ffffff"/></g></g></svg>