<svg viewBox="0,0,492,376" height="376" width="492" xmlns:xlink="http://www.w3.org/1999/xlink" xmlns="http://www.w3.org/2000/svg" version="1.1"><g transform="translate(6,8)"><g style="mix-blend-mode: normal" stroke-dashoffset="0" stroke-dasharray="" stroke-miterlimit="10" stroke-linejoin="miter" stroke-linecap="butt" stroke-width="0" stroke="none" fill-rule="nonzero" data-paper-data="{&quot;isPaintingLayer&quot;:true}"><path fill="#5a29bb" d="M-6,368v-376h492v376z"></path><path fill="#3f1d84" data-paper-data="{&quot;origPos&quot;:null}" d="M138,220c0,-29.65998 0,-64.95053 0,-79c0,-4.68315 6.70711,-12 11,-12c69.07653,0 162.95054,0 177,0c4.68315,0 12,7.31685 12,12c0,30.44051 0,60.60896 0,77c0,5.46368 -9.14605,15 -15,15c-17.56183,0 -106.09426,0 -174,0c-4.29289,0 -11,-6.7558 -11,-13z"></path><path fill="#4c239e" data-paper-data="{&quot;origPos&quot;:null}" d="M138,215c0,-29.65998 0,-64.95054 0,-79c0,-4.68315 6.70711,-12 11,-12c69.07653,0 162.95054,0 177,0c4.68315,0 12,7.31685 12,12c0,30.4405 0,60.60896 0,77c0,5.46368 -9.14606,15 -15,15c-17.56183,0 -106.09426,0 -174,0c-4.29289,0 -11,-6.75579 -11,-13z"></path><path fill="#3f1d84" data-paper-data="{&quot;origPos&quot;:null}" d="M138,291.25c0,-13.11883 0,-20.72813 0,-26.94231c0,-2.07139 6.70711,-9.30769 11,-9.30769c69.07653,0 162.95054,0 177,0c4.68315,0 12,7.23629 12,9.30769c0,13.46407 0,18.80781 0,26.0577c0,2.41663 -9.14605,10.63461 -15,10.63461c-17.56183,0 -106.09426,0 -174,0c-4.29289,0 -11,-6.98814 -11,-9.75z"></path><path fill="#4c239e" data-paper-data="{&quot;origPos&quot;:null}" d="M138,286.25c0,-13.11884 0,-20.72812 0,-26.94231c0,-2.0714 6.70711,-9.30769 11,-9.30769c69.07653,0 162.95054,0 177,0c4.68315,0 12,7.2363 12,9.30769c0,13.46407 0,18.80781 0,26.05769c0,2.41663 -9.14605,10.63462 -15,10.63462c-17.56183,0 -106.09426,0 -174,0c-4.29289,0 -11,-6.98814 -11,-9.75z"></path></g></g></svg>