<svg version="1.1" xmlns="http://www.w3.org/2000/svg" xmlns:xlink="http://www.w3.org/1999/xlink" width="49.6402" height="28.23774"><g transform="translate(-293.51851,-179.31726)"><g data-paper-data="{&quot;isPaintingLayer&quot;:true}" fill="none" fill-rule="nonzero" stroke="none" stroke-width="none" stroke-linecap="butt" stroke-linejoin="miter" stroke-miterlimit="10" stroke-dasharray="" stroke-dashoffset="0" font-family="none" font-weight="none" font-size="none" text-anchor="none" style="mix-blend-mode: normal"><path d="M293.58304,204.05134c0,-7.16321 0,-14.77622 0,-18.16933c0,-1.13104 2.02429,-3.44416 3.08841,-3.44416c17.12257,0 39.57799,0 43.06054,0c1.16085,0 3.42672,2.13112 3.42672,3.26215c0,7.35172 0,13.9097 0,17.86832c0,1.31954 -1.97191,3.98669 -3.42298,3.98669c-4.35319,0 -26.01692,0 -42.84928,0c-1.06411,0 -3.3034,-1.99562 -3.3034,-3.50366z" data-paper-data="{&quot;origPos&quot;:null}" fill="#cc6a14" stroke="none" stroke-width="0"/><path d="M293.51851,200.93075c0,-7.16321 0,-14.77622 0,-18.16933c0,-1.13104 2.02428,-3.44416 3.0884,-3.44416c17.12257,0 39.57798,0 43.06054,0c1.16085,0 3.42672,2.13112 3.42672,3.26215c0,7.35172 0,13.9097 0,17.86832c0,1.31954 -1.97191,3.98669 -3.42298,3.98669c-4.35319,0 -26.01692,0 -42.84928,0c-1.06411,0 -3.3034,-1.99562 -3.3034,-3.50366z" data-paper-data="{&quot;origPos&quot;:null}" fill="#ff861a" stroke="none" stroke-width="0"/><text transform="translate(304.08839,196.39322) scale(0.31541,0.31541)" font-size="40" xml:space="preserve" data-paper-data="{&quot;origPos&quot;:null}" fill="#ffffff" fill-rule="nonzero" stroke="#ffffff" stroke-width="2" stroke-linecap="butt" stroke-linejoin="miter" stroke-miterlimit="10" stroke-dasharray="" stroke-dashoffset="0" font-family="Sans Serif" font-weight="normal" text-anchor="start" style="mix-blend-mode: normal"><tspan x="0" dy="0">Play!</tspan></text></g></g></svg>