<svg version="1.1" xmlns="http://www.w3.org/2000/svg" xmlns:xlink="http://www.w3.org/1999/xlink" width="53.84083" height="72.18394"><g transform="translate(-213.07965,-151.25084)"><g data-paper-data="{&quot;isPaintingLayer&quot;:true}" fill="none" fill-rule="nonzero" stroke="none" stroke-width="none" stroke-linecap="butt" stroke-linejoin="miter" stroke-miterlimit="10" stroke-dasharray="" stroke-dashoffset="0" font-family="none" font-weight="none" font-size="none" text-anchor="none" style="mix-blend-mode: normal"><g stroke="none" stroke-width="0"><path d="M213.21574,201.36063c0,-15.10579 0,-31.16013 0,-38.31551c0,-2.38513 4.30184,-7.26305 5.45459,-7.26305c18.54868,0 37.59219,0 41.3648,0c1.25754,0 6.88535,4.49411 6.88535,6.87922c0,15.50332 0,29.3328 0,37.68073c0,2.78264 -6.02546,8.40713 -7.59738,8.40713c-4.71577,0 -21.83736,0 -40.07165,0c-1.15275,0 -6.03572,-4.20836 -6.03572,-7.38853z" data-paper-data="{&quot;origPos&quot;:null}" fill="#b2b2b2"/><path d="M213.07965,196.8294c0,-15.10579 0,-31.16013 0,-38.31551c0,-2.38513 4.30184,-7.26305 5.45459,-7.26305c18.54868,0 37.59219,0 41.36479,0c1.25754,0 6.88537,4.49411 6.88537,6.87922c0,15.50332 0,29.3328 0,37.68073c0,2.78264 -6.02546,8.40713 -7.59738,8.40713c-4.71577,0 -21.83736,0 -40.07165,0c-1.15275,0 -6.0357,-4.20836 -6.0357,-7.38853z" data-paper-data="{&quot;origPos&quot;:null}" fill="#cccccc"/></g><text transform="translate(223.2566,219.79491) scale(0.27999,0.27999)" font-size="40" xml:space="preserve" data-paper-data="{&quot;origPos&quot;:null}" fill="#999999" fill-rule="nonzero" stroke="#989898" stroke-width="2" stroke-linecap="butt" stroke-linejoin="miter" stroke-miterlimit="10" stroke-dasharray="" stroke-dashoffset="0" font-family="Sans Serif" font-weight="normal" text-anchor="start" style="mix-blend-mode: normal"><tspan x="0" dy="0">Points</tspan></text><text transform="translate(221.45239,174.49842) scale(0.41975,0.41975)" font-size="40" xml:space="preserve" data-paper-data="{&quot;origPos&quot;:null}" fill="#32e700" fill-rule="nonzero" stroke="#32e700" stroke-width="2" stroke-linecap="butt" stroke-linejoin="miter" stroke-miterlimit="10" stroke-dasharray="" stroke-dashoffset="0" font-family="Sans Serif" font-weight="normal" text-anchor="start" style="mix-blend-mode: normal"><tspan x="0" dy="0">x2</tspan></text><path d="M222.07444,184.50704l4.93256,-6.25657l8.21228,6.23314l15.91594,-19.67437l6.79036,4.44071l-21.00952,25.94083z" data-paper-data="{&quot;origPos&quot;:null,&quot;origRot&quot;:0}" fill="#32e700" stroke="#32e700" stroke-width="1"/></g></g></svg>