<svg version="1.1" xmlns="http://www.w3.org/2000/svg" xmlns:xlink="http://www.w3.org/1999/xlink" width="16" height="16"><g transform="translate(-232,-172)"><g data-paper-data="{&quot;isPaintingLayer&quot;:true}" fill="none" fill-rule="nonzero" stroke="none" stroke-width="0" stroke-linecap="butt" stroke-linejoin="miter" stroke-miterlimit="10" stroke-dasharray="" stroke-dashoffset="0" font-family="none" font-weight="none" font-size="none" text-anchor="none" style="mix-blend-mode: normal"><path d="M232,185.86667c0,-4.70917 0,-9.95925 0,-12.06667c0,-0.70247 1.26012,-1.8 2.06667,-1.8c4.68315,0 9.73648,0 12,0c0.75451,0 1.93333,1.13818 1.93333,1.86667c0,2.18547 0,7.2762 0,11.93333c0,0.85858 -1.21947,2.2 -2,2.2c0,0 -9.80314,0 -12.06667,0c-0.75451,0 -1.93333,-1.30077 -1.93333,-2.13333z" data-paper-data="{&quot;origPos&quot;:null}" fill="#00c3ff"/><path d="M233.11667,185.04778c0,-4.05185 0,-8.5691 0,-10.38236c0,-0.60442 1.08422,-1.54875 1.77819,-1.54875c4.02946,0 8.37743,0 10.325,0c0.64919,0 1.66347,0.97931 1.66347,1.60611c0,1.88041 0,6.26057 0,10.26764c0,0.73874 -1.04925,1.89292 -1.72083,1.89292c0,0 -8.43479,0 -10.38236,0c-0.64919,0 -1.66347,-1.11921 -1.66347,-1.83556z" data-paper-data="{&quot;origPos&quot;:null}" fill="#00a8db"/></g></g></svg>