<svg version="1.1" xmlns="http://www.w3.org/2000/svg" xmlns:xlink="http://www.w3.org/1999/xlink" width="415" height="27.59649"><g transform="translate(-12,-242)"><g data-paper-data="{&quot;isPaintingLayer&quot;:true}" fill="#ffffff" fill-rule="nonzero" stroke="none" stroke-width="0" stroke-linecap="butt" stroke-linejoin="miter" stroke-miterlimit="10" stroke-dasharray="" stroke-dashoffset="0" font-family="none" font-weight="none" font-size="none" text-anchor="none" style="mix-blend-mode: normal"><g data-paper-data="{&quot;origPos&quot;:null}"><path d="M12,265.1579c0,-4.80639 0,-8.34377 0,-13.68421c0,-2.13618 2.37123,-5.47369 6.5347,-5.47369c154.46484,0 390.37335,0 402.86376,0c4.16348,0 5.60154,2.92032 5.60154,4.78947c0,5.34044 0,8.34377 0,13.68421c0,1.86916 -1.70457,5.12281 -5.86804,5.12281c-12.49041,0 -249.11624,-0.33334 -403.99743,-0.33334c-2.91443,0 -5.13453,-2.50313 -5.13453,-4.10527z" data-paper-data="{&quot;origPos&quot;:null}"/><path d="M12,261.1579c0,-4.80639 0,-8.34377 0,-13.68421c0,-2.13618 2.37123,-5.47369 6.53471,-5.47369c154.46484,0 390.37334,0 402.86375,0c4.16348,0 5.60154,2.92032 5.60154,4.78947c0,5.34044 0,8.34377 0,13.68421c0,1.86916 -1.70456,5.12281 -5.86804,5.12281c-12.49041,0 -249.11624,-0.33333 -403.99743,-0.33333c-2.91443,0 -5.13453,-2.50313 -5.13453,-4.10527z" data-paper-data="{&quot;origPos&quot;:null}"/></g></g></g></svg>