<svg version="1.1" xmlns="http://www.w3.org/2000/svg" xmlns:xlink="http://www.w3.org/1999/xlink" width="23.436" height="25.60843"><g transform="translate(-228.282,-167.19578)"><g data-paper-data="{&quot;isPaintingLayer&quot;:true}" fill="none" fill-rule="nonzero" stroke="none" stroke-width="0" stroke-linecap="butt" stroke-linejoin="miter" stroke-miterlimit="10" stroke-dasharray="" stroke-dashoffset="0" font-family="none" font-weight="none" font-size="none" text-anchor="none" style="mix-blend-mode: normal"><path d="M228.34122,189.58811c0,-6.5753 0,-13.56348 0,-16.6781c0,-1.03821 1.87252,-3.16149 2.37429,-3.16149c8.07393,0 16.36325,0 18.00541,0c0.54739,0 2.99708,1.95621 2.99708,2.99441c0,6.74834 0,12.76807 0,16.40179c0,1.21124 -2.62278,3.65948 -3.30701,3.65948c-2.05269,0 -9.50544,0 -17.44251,0c-0.50177,0 -2.62724,-1.83183 -2.62724,-3.2161z" data-paper-data="{&quot;origPos&quot;:null}" fill="#cc2929" stroke="none"/><path d="M228.282,187.03537c0,-6.5753 0,-13.56348 0,-16.6781c0,-1.03821 1.87252,-3.16149 2.37429,-3.16149c8.07393,0 16.36325,0 18.0054,0c0.54739,0 2.99709,1.95621 2.99709,2.99441c0,6.74834 0,12.76807 0,16.40179c0,1.21124 -2.62278,3.65948 -3.30701,3.65948c-2.05269,0 -9.50544,0 -17.44251,0c-0.50177,0 -2.62724,-1.83183 -2.62724,-3.2161z" data-paper-data="{&quot;origPos&quot;:null}" fill="#ff3333" stroke="none"/><path d="M233.4515,183.16702l3.31881,-4.00545l-3.31881,-3.77657l2.51771,-2.86104l3.89101,3.20436l3.89101,-3.20436l2.51771,2.7466l-3.43325,3.89101l3.43325,3.66213l-2.86104,2.97547l-3.54769,-3.43325l-3.77657,3.43325z" data-paper-data="{&quot;origPos&quot;:null}" fill="#ffffff" stroke="#ffffff"/></g></g></svg>