<svg version="1.1" width="127.81950378417969" height="32.25" viewBox="0.25 -1.7399992942810059 127.81950378417969 32.25" xmlns="http://www.w3.org/2000/svg" xmlns:xlink="http://www.w3.org/1999/xlink">
  <!-- Exported by Scratch - http://scratch.mit.edu/ -->
  <text id="ID0.12736280215904117" fill="#FFFFFF" text-anchor="start" font-family="Sans Serif" font-size="22" transform="matrix(1, 0, 0, 1, 2, -2.35)" stroke-width="1" alignment-baseline="text-before-edge" xml:space="preserve"><tspan x="0" style="white-space: pre" dy="1.13em">PlayStation</tspan></text>
  <path id="ID0.5287817749194801" fill="none" stroke="#FFFFFF" stroke-width="0.394819974899292" d="M 124.5886 16.4493 C 125.411 16.4493 126.1562 16.7833 126.6958 17.323 C 127.2355 17.8626 127.5695 18.6078 127.5695 19.4302 C 127.5695 20.2526 127.2355 20.9978 126.6958 21.5374 C 126.1562 22.0771 125.411 22.4111 124.5886 22.4111 C 123.7662 22.4111 123.021 22.0771 122.4814 21.5374 C 121.9417 20.9978 121.6077 20.2526 121.6077 19.4302 C 121.6077 18.6078 121.9417 17.8626 122.4814 17.323 C 123.021 16.7833 123.7662 16.4493 124.5886 16.4493 Z "/>
  <text id="ID0.034798393957316875" fill="#FFFFFF" text-anchor="start" font-family="Sans Serif" font-size="22" transform="matrix(0.216734, 0, 0, 0.216734, 122.783, 15.6498)" stroke-width="1" alignment-baseline="text-before-edge" xml:space="preserve"><tspan x="0" style="white-space: pre" dy="1.13em">R</tspan></text>
</svg>