<svg version="1.1" xmlns="http://www.w3.org/2000/svg" xmlns:xlink="http://www.w3.org/1999/xlink" width="30.84081" height="33.69964"><g transform="translate(-224.57963,-163.15018)"><g data-paper-data="{&quot;isPaintingLayer&quot;:true}" fill="none" fill-rule="nonzero" stroke="none" stroke-width="none" stroke-linecap="none" stroke-linejoin="miter" stroke-miterlimit="10" stroke-dasharray="" stroke-dashoffset="0" font-family="none" font-weight="none" font-size="none" text-anchor="none" style="mix-blend-mode: normal"><path d="M224.65757,192.61756c0,-8.65282 0,-17.84898 0,-21.94769c0,-1.36624 2.46416,-4.16038 3.12447,-4.16038c10.62496,0 21.53336,0 23.69437,0c0.72034,0 3.94403,2.57429 3.94403,3.94052c0,8.88053 0,16.80226 0,21.58408c0,1.59394 -3.45147,4.81573 -4.35189,4.81573c-2.70126,0 -12.50876,0 -22.95363,0c-0.66031,0 -3.45735,-2.41061 -3.45735,-4.23226z" data-paper-data="{&quot;origPos&quot;:null}" fill="#cc2929" stroke="none" stroke-width="0" stroke-linecap="butt"/><path d="M224.57963,189.25825c0,-8.65282 0,-17.84898 0,-21.94769c0,-1.36624 2.46416,-4.16038 3.12447,-4.16038c10.62496,0 21.53336,0 23.69436,0c0.72034,0 3.94404,2.57429 3.94404,3.94052c0,8.88053 0,16.80226 0,21.58408c0,1.59394 -3.45147,4.81573 -4.35189,4.81573c-2.70126,0 -12.50876,0 -22.95363,0c-0.66031,0 -3.45734,-2.41061 -3.45734,-4.23226z" data-paper-data="{&quot;origPos&quot;:null}" fill="#ff3333" stroke="none" stroke-width="0" stroke-linecap="butt"/><g fill="none" stroke="#ffffff" stroke-linecap="round"><path d="M229.68385,175.34646h19.43233" data-paper-data="{&quot;origPos&quot;:null}" stroke-width="2"/><path d="M233.16248,175.34646c0,0 0.36959,-4.00771 2.2791,-4.91806c1.90951,-0.91035 5.16993,-1.33571 8.03683,0c2.8669,1.33571 2.51901,4.91806 2.51901,4.91806" data-paper-data="{&quot;origPos&quot;:null}" stroke-width="2"/><path d="M245.35964,175.90821l-1.43944,11.75536l-8.59858,0.03801l-1.43943,-11.87531" data-paper-data="{&quot;origPos&quot;:null}" stroke-width="2"/><path d="M237.00096,178.46523l0.71972,4.79811" data-paper-data="{&quot;origPos&quot;:null}" stroke-width="1"/><path d="M241.5146,183.23765l0.71972,-4.79811" data-paper-data="{&quot;origPos&quot;:null,&quot;index&quot;:null}" stroke-width="1"/><path d="M239.71154,178.27038v4.53933" data-paper-data="{&quot;origPos&quot;:null}" stroke-width="1"/></g></g></g></svg>